<?xml version="1.0" standalone="no"?>
<!DOCTYPE svg PUBLIC "-//W3C//DTD SVG 20010904//EN"
 "http://www.w3.org/TR/2001/REC-SVG-20010904/DTD/svg10.dtd">
<svg version="1.0" xmlns="http://www.w3.org/2000/svg"
 width="1300.000000pt" height="1300.000000pt" viewBox="0 0 1300.000000 1300.000000"
 preserveAspectRatio="xMidYMid meet">
<metadata>
Created by potrace 1.14, written by Peter Selinger 2001-2017
</metadata>
<g transform="translate(0.000000,1300.000000) scale(0.100000,-0.100000)"
fill="#000000" stroke="none">
<path d="M4717 10014 c-1 -1 -31 -5 -67 -8 -84 -9 -199 -48 -275 -93 -96 -58
-203 -173 -253 -273 -23 -47 -44 -94 -47 -105 -2 -11 -10 -40 -16 -65 -7 -27
-12 -146 -13 -302 l-2 -256 41 -13 c64 -21 205 -96 270 -144 181 -136 307
-312 376 -530 41 -127 42 -157 45 -900 1 -396 3 -726 3 -732 1 -10 365 -13
1785 -13 l1784 0 0 693 c-1 663 2 769 22 847 5 19 11 46 14 60 7 41 47 151 74
205 74 149 204 297 342 392 54 37 167 94 233 119 l48 17 -4 266 c-2 146 -7
279 -11 294 -22 89 -59 173 -107 243 -38 56 -156 174 -174 174 -2 0 -20 11
-40 24 -35 24 -151 72 -190 79 -11 2 -37 7 -57 11 -29 6 -3774 15 -3781 10z
m1009 -989 c95 -97 55 -259 -72 -294 -132 -36 -257 93 -214 223 38 117 202
158 286 71z m1874 27 c99 -49 124 -195 47 -270 -97 -94 -233 -70 -287 50 -37
83 -1 179 85 226 31 17 116 14 155 -6z m-950 -773 c129 -77 108 -268 -35 -316
-82 -27 -184 20 -214 100 -59 155 108 299 249 216z m-989 -774 c65 -14 122
-99 118 -173 -11 -189 -260 -229 -334 -55 -41 94 17 203 123 232 26 8 39 7 93
-4z m1943 -13 c119 -70 117 -244 -3 -307 -88 -45 -191 -11 -238 80 -20 38 -20
113 0 152 20 39 71 81 105 89 15 3 32 7 37 8 22 6 70 -5 99 -22z"/>
<path d="M3688 8695 c-2 -1 -31 -5 -65 -8 -311 -30 -583 -249 -677 -548 -32
-97 -38 -144 -38 -254 1 -214 91 -414 258 -570 l54 -50 0 -1395 0 -1395 25
-37 c16 -24 37 -40 58 -46 17 -4 273 -8 567 -7 596 1 581 -1 614 69 13 28 16
72 16 265 l0 231 2064 0 2064 0 1 -241 c1 -229 2 -243 23 -271 38 -55 38 -55
625 -54 531 1 542 2 570 22 66 48 61 -58 61 1473 l0 1388 62 59 c34 32 83 87
107 122 43 60 107 194 118 250 4 15 9 41 13 57 9 39 9 229 0 280 -41 234 -199
452 -408 561 -69 36 -107 50 -195 74 -89 23 -290 22 -381 -3 -315 -86 -536
-339 -589 -674 -4 -24 -7 -421 -7 -883 l0 -840 -2064 0 -2064 0 0 833 c-1 457
-3 850 -6 872 -17 125 -62 252 -124 350 -37 58 -58 83 -128 151 -124 119 -292
196 -462 210 -30 3 -63 7 -72 8 -9 2 -18 3 -20 1z"/>
<path d="M3490 4115 l0 -95 375 0 375 0 0 95 0 95 -375 0 -375 0 0 -95z"/>
<path d="M8885 4118 l0 -93 376 -3 376 -2 0 95 0 95 -376 0 -377 0 1 -92z"/>
</g>
</svg>
