<svg xmlns="http://www.w3.org/2000/svg" width="207.482" height="76.744" viewBox="0 0 207.482 76.744">
  <g id="ロゴ" transform="translate(-556.461 -356.533)">
    <path id="パス_10" data-name="パス 10" d="M-102.688,0h13.413V-1.071c-4.284,0-4.9-.867-4.9-5.967V-15.1c0-5.1.612-5.967,4.9-5.967v-1.02h-13.413v1.02c4.233,0,4.9.867,4.9,5.967v8.058c0,5.1-.663,5.967-4.9,5.967Zm31.059.867A11.939,11.939,0,0,0-59.746-11.067,11.928,11.928,0,0,0-71.629-22.95,11.928,11.928,0,0,0-83.512-11.067,11.939,11.939,0,0,0-71.629.867Zm0-2.958a8.821,8.821,0,0,1-8.619-8.976,8.853,8.853,0,0,1,8.619-8.976,8.887,8.887,0,0,1,8.619,8.976A8.854,8.854,0,0,1-71.629-2.091ZM-41.437.867A11.939,11.939,0,0,0-29.554-11.067,11.928,11.928,0,0,0-41.437-22.95,11.928,11.928,0,0,0-53.32-11.067,11.939,11.939,0,0,0-41.437.867Zm0-2.958a8.821,8.821,0,0,1-8.619-8.976,8.853,8.853,0,0,1,8.619-8.976,8.887,8.887,0,0,1,8.619,8.976A8.854,8.854,0,0,1-41.437-2.091ZM-2.983.867A10.424,10.424,0,0,0,4.616-2.5L3.749-3.621A8.322,8.322,0,0,1-1.708-1.275c-4.182,0-6.171-2.7-6.171-6.783,0-4.692,2.193-8.16,4.9-8.16.918,0,1.836.51,1.836,2.193a2,2,0,0,0,1.989,2.04,2.132,2.132,0,0,0,2.244-2.193c0-1.887-1.836-3.672-6.069-3.672-4.08,0-9.027,3.774-9.027,9.792C-12.01-2.958-8.644.867-2.983.867ZM6.554,0H17.417V-1.071c-2.805,0-3.213-.663-3.213-5.967v-3.315c0-2.907,2.958-5.1,5.508-5.1,2.652,0,3.825,2.142,3.825,5.457v2.958c0,5.253-.408,5.967-3.621,5.967V0H31.238V-1.071c-3.417,0-4.08-.867-4.08-5.967v-3.213c0-4.335-1.581-7.6-6.273-7.6-2.958,0-5.253,1.938-6.681,3.672V-31.467l-7.65,1.275v1.071c3.417,0,4.029.867,4.029,5.967V-7.038c0,5.1-.612,5.967-4.029,5.967ZM39.245.663c2.04,0,3.876-.816,6.375-3.06A3.218,3.218,0,0,0,49.088.561,4.835,4.835,0,0,0,52.454-1.02l-.714-.969a2.333,2.333,0,0,1-1.428.765c-.765,0-1.173-.714-1.173-1.989v-7.7c0-4.845-2.04-6.936-6.987-6.936-3.264,0-6.477,1.632-6.477,4.08a1.743,1.743,0,0,0,1.785,1.785,1.732,1.732,0,0,0,1.734-1.785c0-1.632,1.734-2.448,2.907-2.448,2.907,0,3.417,1.53,3.417,5.355C39.7-9.843,34.655-7.956,34.655-3.621,34.655-.918,36.746.663,39.245.663Zm1.632-2.3a2.417,2.417,0,0,1-2.4-2.6c0-2.244,2.193-3.927,7.038-5.049v5.2C43.172-1.989,41.948-1.632,40.877-1.632ZM55.208,0H66.886V-1.071c-3.417,0-4.029-.867-4.029-5.967V-17.85l-7.65,1.275V-15.5c3.366,0,4.029.816,4.029,5.916v2.55c0,5.1-.663,5.967-4.029,5.967Zm5.814-22.848a2.275,2.275,0,0,0,2.244-2.295,2.264,2.264,0,0,0-2.244-2.244,2.264,2.264,0,0,0-2.244,2.244A2.275,2.275,0,0,0,61.021-22.848ZM69.794,0H81.472V-1.071c-3.417,0-4.029-.867-4.029-5.967V-9.843c0-4.08,2.754-5.967,3.927-5.967A1.516,1.516,0,0,1,83-14.127a1.852,1.852,0,0,0,1.785,1.836c1.581,0,2.04-1.275,2.04-2.4,0-1.275-1.224-3.162-4.029-3.162a6.637,6.637,0,0,0-5.355,3.672,20.615,20.615,0,0,0-.867-3.672l-6.783,1.275V-15.5c3.366,0,4.029.816,4.029,5.916v2.55c0,5.1-.663,5.967-4.029,5.967ZM90.346.867h1.071c0-1.224.2-1.632.663-1.632.714,0,2.5,1.632,4.794,1.632,3.315,0,6.069-2.193,6.069-5.559,0-1.836-1.275-3.621-3.519-4.9l-2.448-1.326c-2.3-1.224-3.111-1.887-3.111-3.111,0-1.275.867-2.193,2.6-2.193a4.142,4.142,0,0,1,4.131,4.284h1.071V-17.85H100.6c0,.816-.1,1.173-.306,1.173-.663,0-1.683-1.173-4.335-1.173-2.6,0-5.151,1.887-5.151,4.641a5.955,5.955,0,0,0,3.366,5.1l2.856,1.53c1.734.918,2.856,1.836,2.856,3.111a2.724,2.724,0,0,1-2.907,2.6c-3.621,0-5.559-3.417-5.559-5.712H90.346Z" transform="translate(661 388)" fill="#303030"/>
    <path id="パス_11" data-name="パス 11" d="M2.963-14.437a1.1,1.1,0,0,1,.815.338,1.126,1.126,0,0,1,.333.82,1.105,1.105,0,0,1-.338.81,1.105,1.105,0,0,1-.81.338,1.117,1.117,0,0,1-.82-.338,1.105,1.105,0,0,1-.338-.81,1.117,1.117,0,0,1,.338-.82A1.117,1.117,0,0,1,2.963-14.437Zm-2.5,6v-.584A10.73,10.73,0,0,0,3.8-9.885l.226.164q-.082,2.184-.082,3.343v1.866Q4-1.846,4.009-1.63a2.116,2.116,0,0,0,.113.749.542.542,0,0,0,.133.159A.638.638,0,0,0,4.5-.615q.062.01,1.138.031V0Q4.081-.072,3.148-.072,2.328-.072.461,0V-.584l.974-.01a.76.76,0,0,0,.333-.077.477.477,0,0,0,.179-.169,1.881,1.881,0,0,0,.144-.728q0-.133.062-2.943v-1.8a8.511,8.511,0,0,0-.1-1.815.427.427,0,0,0-.22-.231A5.941,5.941,0,0,0,.461-8.439ZM6.4,0V-.584l.974-.01a.76.76,0,0,0,.333-.077.477.477,0,0,0,.179-.169,1.881,1.881,0,0,0,.144-.728q0-.133.062-2.943v-1.22q0-.82-.031-1.764a2.308,2.308,0,0,0-.1-.718.408.408,0,0,0-.231-.169A7.554,7.554,0,0,0,6.4-8.429v-.584a10.84,10.84,0,0,0,3.025-.749.817.817,0,0,1,.277-.1.137.137,0,0,1,.113.051.243.243,0,0,1,.041.154,1.5,1.5,0,0,1-.01.164q-.031.369-.062,1.559l1.907-1.63a4.632,4.632,0,0,1,1.589-.308,3.755,3.755,0,0,1,1.574.338,2.757,2.757,0,0,1,1.118.851,2.934,2.934,0,0,1,.5,1.292,25.279,25.279,0,0,1,.072,2.574V-3a14.82,14.82,0,0,0,.072,1.815.855.855,0,0,0,.159.426.533.533,0,0,0,.333.149l1.1.031V0q-1-.072-1.671-.072-.574,0-1.907.072.144-2.533.144-3.2V-4.922a11.177,11.177,0,0,0-.123-2.112,1.864,1.864,0,0,0-.79-1.107,2.572,2.572,0,0,0-1.487-.42,2.777,2.777,0,0,0-1.4.364,2.346,2.346,0,0,0-.907.841,3.449,3.449,0,0,0-.272,1.6v1.241q.062,2.666.062,2.881a2.236,2.236,0,0,0,.123.749.426.426,0,0,0,.123.159.647.647,0,0,0,.256.108q.062.01,1.128.031V0Q10.223-.072,9.208-.072,8.347-.072,6.4,0ZM24.035-13.915v-.656q1.559.062,2.646.062.769,0,2.758-.041t2.687-.041q.749,0,1.369.015t1.123.056a14.3,14.3,0,0,0-.328,3.107h-.646a12.3,12.3,0,0,0-.256-1.907,6.167,6.167,0,0,0-1.318-.272,16.692,16.692,0,0,0-1.82-.087,19.413,19.413,0,0,0-2.143.123q-.062.554-.082,1.036-.01.277-.051,2.348V-7.9q1.148.031,2.03.031A12.892,12.892,0,0,0,32.084-8a.6.6,0,0,0,.385-.169,2.9,2.9,0,0,0,.19-.866l.082-.636h.646l-.072,2.338.072,2.512h-.646l-.072-.656a7.566,7.566,0,0,0-.164-1.2.58.58,0,0,0-.39-.215,15.644,15.644,0,0,0-2.646-.133q-.728,0-1.5.041v2.071q0,1.395.041,2.717a3.214,3.214,0,0,0,.138,1.159.688.688,0,0,0,.385.272,7.323,7.323,0,0,0,1.477.108V0q-1.3-.082-2.594-.082-1.159,0-3.384.082V-.656a7.323,7.323,0,0,0,1.477-.108A.678.678,0,0,0,25.881-1,2.612,2.612,0,0,0,26.035-2q.01-.215.041-2.912V-9.659q0-1.395-.031-2.728A3.225,3.225,0,0,0,25.9-13.54a.7.7,0,0,0-.379-.267A7.305,7.305,0,0,0,24.035-13.915ZM47.394-.584V0q-1.343-.072-2.03-.072-.759,0-1.538.072.062-.831.092-1.866A18.58,18.58,0,0,0,42.451-.523a1.5,1.5,0,0,1-.379.287,3.527,3.527,0,0,1-.882.354,4.505,4.505,0,0,1-1.056.108A3.73,3.73,0,0,1,38.744,0a2.482,2.482,0,0,1-.959-.687,2.29,2.29,0,0,1-.456-.877,4.623,4.623,0,0,1-.159-1.3q0-.359.026-.677t.026-.625V-5.917q0-.267-.031-1.343a3.673,3.673,0,0,0-.092-.882.349.349,0,0,0-.133-.164,1.039,1.039,0,0,0-.543-.1q-.564,0-.892-.01V-9a9.2,9.2,0,0,0,3.2-.79.583.583,0,0,1,.256-.092.152.152,0,0,1,.118.051.224.224,0,0,1,.046.154q0,.082-.01.205-.041.328-.072,1.261-.062,1.712-.062,2.3v2a6.272,6.272,0,0,0,.169,1.759,1.491,1.491,0,0,0,.656.81,2.243,2.243,0,0,0,1.2.3,2.967,2.967,0,0,0,.979-.169,2.859,2.859,0,0,0,.877-.487,3.6,3.6,0,0,0,.584-.636,2.7,2.7,0,0,0,.3-.456,1.41,1.41,0,0,0,.092-.467q.051-.9.051-1.794v-.861q0-.267-.031-1.343a3.673,3.673,0,0,0-.092-.882.349.349,0,0,0-.133-.164,1.039,1.039,0,0,0-.543-.1q-.564,0-.892-.01V-9a9.2,9.2,0,0,0,3.2-.79.583.583,0,0,1,.256-.092.152.152,0,0,1,.118.051.224.224,0,0,1,.046.154q0,.082-.01.205-.031.328-.072,1.3Q45.7-6.5,45.7-5.917v1.4l.021,1.425q.031,1.241.041,1.456a2.116,2.116,0,0,0,.113.749.542.542,0,0,0,.133.159.638.638,0,0,0,.246.108Q46.317-.6,47.394-.584ZM48.409,0V-.584Q49.567-.6,49.66-.625a.607.607,0,0,0,.261-.1.45.45,0,0,0,.138-.19,2.2,2.2,0,0,0,.123-.738q.062-2.738.062-2.861v-1.22q0-.82-.031-1.764a2.225,2.225,0,0,0-.087-.718.409.409,0,0,0-.236-.169,7.657,7.657,0,0,0-1.338-.046v-.584a10.84,10.84,0,0,0,3.025-.749.817.817,0,0,1,.277-.1.137.137,0,0,1,.113.051.243.243,0,0,1,.041.154A1.5,1.5,0,0,1,52-9.5q-.051.625-.062,1.938.461-.533.851-1.056a5.17,5.17,0,0,1,.564-.677,2.454,2.454,0,0,1,.708-.426,2.229,2.229,0,0,1,.831-.159,2.1,2.1,0,0,1,.851.185l.062.144q-.154,1.364-.174,2.4h-.461a1.843,1.843,0,0,0-.549-.718,1.306,1.306,0,0,0-.784-.226,1.7,1.7,0,0,0-1.343.651,2.953,2.953,0,0,0-.554,1.953V-4.43q0,.677.051,2.471a5.074,5.074,0,0,0,.051.81.6.6,0,0,0,.108.251.494.494,0,0,0,.22.128,10.941,10.941,0,0,0,1.661.185V0q-1.8-.072-3.076-.072Q49.639-.072,48.409,0Zm8.1,0V-.584l.974-.01a.76.76,0,0,0,.333-.077A.477.477,0,0,0,58-.841a1.881,1.881,0,0,0,.144-.728q0-.133.062-2.943v-1.22q0-.82-.031-1.764a2.308,2.308,0,0,0-.1-.718.408.408,0,0,0-.231-.169,7.554,7.554,0,0,0-1.333-.046v-.584a10.84,10.84,0,0,0,3.025-.749.817.817,0,0,1,.277-.1.137.137,0,0,1,.113.051.243.243,0,0,1,.041.154,1.5,1.5,0,0,1-.01.164q-.031.369-.062,1.559L61.8-9.567a4.632,4.632,0,0,1,1.589-.308,3.755,3.755,0,0,1,1.574.338,2.757,2.757,0,0,1,1.118.851,2.934,2.934,0,0,1,.5,1.292,25.279,25.279,0,0,1,.072,2.574V-3a14.82,14.82,0,0,0,.072,1.815.855.855,0,0,0,.159.426.533.533,0,0,0,.333.149l1.1.031V0q-1-.072-1.671-.072-.574,0-1.907.072.144-2.533.144-3.2V-4.922a11.177,11.177,0,0,0-.123-2.112,1.864,1.864,0,0,0-.79-1.107,2.572,2.572,0,0,0-1.487-.42,2.777,2.777,0,0,0-1.4.364,2.346,2.346,0,0,0-.907.841,3.449,3.449,0,0,0-.272,1.6v1.241q.062,2.666.062,2.881a2.236,2.236,0,0,0,.123.749.426.426,0,0,0,.123.159.647.647,0,0,0,.256.108q.062.01,1.128.031V0q-1.251-.072-2.266-.072Q58.458-.072,56.509,0Zm14.9-14.437a1.1,1.1,0,0,1,.815.338,1.126,1.126,0,0,1,.333.82,1.105,1.105,0,0,1-.338.81,1.105,1.105,0,0,1-.81.338,1.117,1.117,0,0,1-.82-.338,1.105,1.105,0,0,1-.338-.81,1.117,1.117,0,0,1,.338-.82A1.117,1.117,0,0,1,71.408-14.437Zm-2.5,6v-.584a10.73,10.73,0,0,0,3.343-.861l.226.164q-.082,2.184-.082,3.343v1.866q.051,2.666.062,2.881a2.116,2.116,0,0,0,.113.749.542.542,0,0,0,.133.159.638.638,0,0,0,.246.108q.062.01,1.138.031V0q-1.559-.072-2.492-.072-.82,0-2.687.072V-.584l.974-.01a.76.76,0,0,0,.333-.077.477.477,0,0,0,.179-.169,1.881,1.881,0,0,0,.144-.728q0-.133.062-2.943v-1.8a8.511,8.511,0,0,0-.1-1.815.427.427,0,0,0-.22-.231A5.941,5.941,0,0,0,68.906-8.439Zm6.122.4V-8.47a17.257,17.257,0,0,0,1.63-.7q0-2.44-.062-3.117a8.492,8.492,0,0,0,1.733-.79l.246.205q-.113.851-.246,3.753.82.01.984.01.092,0,1.056-.021.533-.01.8-.041l.072.072-.215.954q-.646-.01-1.189-.01t-1.507.01l-.062,4.173a15.424,15.424,0,0,0,.021,1.825,1.361,1.361,0,0,0,.195.518,1.092,1.092,0,0,0,.374.354,2.268,2.268,0,0,0,.784.205,5.211,5.211,0,0,0,.682-.036,3.431,3.431,0,0,0,.661-.179l.123.4q-.482.379-.933.79a3.481,3.481,0,0,1-.728.19,5.829,5.829,0,0,1-.779.046A2.492,2.492,0,0,1,77.8.021a2.082,2.082,0,0,1-.59-.344,1.759,1.759,0,0,1-.441-.559,2.9,2.9,0,0,1-.226-1.066q.01-.7.041-1.528.01-.164.01-.359V-8.09h-.42Q75.664-8.09,75.028-8.039ZM93.536-.584V0q-1.343-.072-2.03-.072-.759,0-1.538.072.062-.831.092-1.866A18.58,18.58,0,0,0,88.594-.523a1.5,1.5,0,0,1-.379.287,3.527,3.527,0,0,1-.882.354,4.505,4.505,0,0,1-1.056.108A3.73,3.73,0,0,1,84.887,0a2.482,2.482,0,0,1-.959-.687,2.29,2.29,0,0,1-.456-.877,4.623,4.623,0,0,1-.159-1.3q0-.359.026-.677t.026-.625V-5.917q0-.267-.031-1.343a3.673,3.673,0,0,0-.092-.882.349.349,0,0,0-.133-.164,1.039,1.039,0,0,0-.543-.1q-.564,0-.892-.01V-9a9.2,9.2,0,0,0,3.2-.79.583.583,0,0,1,.256-.092.152.152,0,0,1,.118.051.224.224,0,0,1,.046.154q0,.082-.01.205-.041.328-.072,1.261-.062,1.712-.062,2.3v2a6.272,6.272,0,0,0,.169,1.759,1.491,1.491,0,0,0,.656.81,2.243,2.243,0,0,0,1.2.3,2.967,2.967,0,0,0,.979-.169,2.859,2.859,0,0,0,.877-.487,3.6,3.6,0,0,0,.584-.636,2.7,2.7,0,0,0,.3-.456,1.41,1.41,0,0,0,.092-.467q.051-.9.051-1.794v-.861q0-.267-.031-1.343a3.673,3.673,0,0,0-.092-.882.349.349,0,0,0-.133-.164,1.039,1.039,0,0,0-.543-.1q-.564,0-.892-.01V-9a9.2,9.2,0,0,0,3.2-.79.583.583,0,0,1,.256-.092.152.152,0,0,1,.118.051.224.224,0,0,1,.046.154q0,.082-.01.205-.031.328-.072,1.3-.062,1.671-.062,2.256v1.4l.021,1.425q.031,1.241.041,1.456a2.116,2.116,0,0,0,.113.749.542.542,0,0,0,.133.159.638.638,0,0,0,.246.108Q92.459-.6,93.536-.584ZM94.551,0V-.584Q95.71-.6,95.8-.625a.607.607,0,0,0,.261-.1.45.45,0,0,0,.138-.19,2.2,2.2,0,0,0,.123-.738q.062-2.738.062-2.861v-1.22q0-.82-.031-1.764a2.225,2.225,0,0,0-.087-.718.409.409,0,0,0-.236-.169,7.657,7.657,0,0,0-1.338-.046v-.584a10.84,10.84,0,0,0,3.025-.749.817.817,0,0,1,.277-.1.137.137,0,0,1,.113.051.243.243,0,0,1,.041.154,1.5,1.5,0,0,1-.01.164q-.051.625-.062,1.938.461-.533.851-1.056a5.17,5.17,0,0,1,.564-.677,2.454,2.454,0,0,1,.708-.426,2.229,2.229,0,0,1,.831-.159,2.1,2.1,0,0,1,.851.185l.062.144q-.154,1.364-.174,2.4h-.461a1.843,1.843,0,0,0-.549-.718,1.306,1.306,0,0,0-.784-.226,1.7,1.7,0,0,0-1.343.651,2.953,2.953,0,0,0-.554,1.953V-4.43q0,.677.051,2.471a5.074,5.074,0,0,0,.051.81.6.6,0,0,0,.108.251.494.494,0,0,0,.22.128,10.941,10.941,0,0,0,1.661.185V0q-1.8-.072-3.076-.072Q95.782-.072,94.551,0ZM111.06-1.589l-.328.738a9.371,9.371,0,0,1-1.036.584,6.314,6.314,0,0,1-1.1.364,5.593,5.593,0,0,1-1.307.149,5.281,5.281,0,0,1-2.451-.564A3.985,3.985,0,0,1,103.129-2a5.426,5.426,0,0,1-.61-2.63,6.575,6.575,0,0,1,.323-2.128,4.028,4.028,0,0,1,.733-1.4,5.3,5.3,0,0,1,.923-.754,6.52,6.52,0,0,1,1.241-.672,4.5,4.5,0,0,1,1.753-.338,4.155,4.155,0,0,1,2.076.523,3.2,3.2,0,0,1,1.359,1.425,4.68,4.68,0,0,1,.431,2.041q0,.287-.041.7a11.074,11.074,0,0,1-1.323.185q-1.107.082-2.215.082h-3.292a5.17,5.17,0,0,0,.508,2.374,3.078,3.078,0,0,0,1.343,1.338,3.912,3.912,0,0,0,1.779.431,4.04,4.04,0,0,0,1.246-.2,8.175,8.175,0,0,0,1.533-.733Zm-6.573-4.194q.287.031,1.087.062,1.528.051,2.1.051,1.364,0,1.794-.051.01-.246.01-.379a3.583,3.583,0,0,0-.656-2.379,2.2,2.2,0,0,0-1.753-.759,2.331,2.331,0,0,0-1.866.831A4.041,4.041,0,0,0,104.487-5.783Zm13.269-8.131v-.656q1.559.062,2.646.062.769,0,2.758-.041t2.687-.041q.749,0,1.369.015t1.123.056a14.3,14.3,0,0,0-.328,3.107h-.646a12.3,12.3,0,0,0-.256-1.907,6.167,6.167,0,0,0-1.318-.272,16.692,16.692,0,0,0-1.82-.087,19.413,19.413,0,0,0-2.143.123q-.062.554-.082,1.036-.01.277-.051,2.348V-7.9q1.148.031,2.03.031A12.892,12.892,0,0,0,125.805-8a.6.6,0,0,0,.385-.169,2.9,2.9,0,0,0,.19-.866l.082-.636h.646l-.072,2.338.072,2.512h-.646l-.072-.656a7.566,7.566,0,0,0-.164-1.2.58.58,0,0,0-.39-.215,15.644,15.644,0,0,0-2.646-.133q-.728,0-1.5.041v2.071q0,1.395.041,2.717a3.214,3.214,0,0,0,.138,1.159.688.688,0,0,0,.385.272,7.323,7.323,0,0,0,1.477.108V0q-1.3-.082-2.594-.082-1.159,0-3.384.082V-.656a7.323,7.323,0,0,0,1.477-.108A.678.678,0,0,0,119.6-1,2.612,2.612,0,0,0,119.755-2q.01-.215.041-2.912V-9.659q0-1.395-.031-2.728a3.225,3.225,0,0,0-.149-1.154.7.7,0,0,0-.379-.267A7.305,7.305,0,0,0,117.756-13.915ZM138.048-1.589l-.328.738a9.371,9.371,0,0,1-1.036.584,6.314,6.314,0,0,1-1.1.364,5.593,5.593,0,0,1-1.307.149,5.281,5.281,0,0,1-2.451-.564A3.985,3.985,0,0,1,130.117-2a5.426,5.426,0,0,1-.61-2.63,6.575,6.575,0,0,1,.323-2.128,4.028,4.028,0,0,1,.733-1.4,5.3,5.3,0,0,1,.923-.754,6.52,6.52,0,0,1,1.241-.672,4.5,4.5,0,0,1,1.753-.338,4.155,4.155,0,0,1,2.076.523,3.2,3.2,0,0,1,1.359,1.425,4.68,4.68,0,0,1,.431,2.041q0,.287-.041.7a11.074,11.074,0,0,1-1.323.185q-1.107.082-2.215.082h-3.292a5.17,5.17,0,0,0,.508,2.374,3.078,3.078,0,0,0,1.343,1.338,3.912,3.912,0,0,0,1.779.431,4.04,4.04,0,0,0,1.246-.2,8.175,8.175,0,0,0,1.533-.733Zm-6.573-4.194q.287.031,1.087.062,1.528.051,2.1.051,1.364,0,1.794-.051.01-.246.01-.379a3.583,3.583,0,0,0-.656-2.379,2.2,2.2,0,0,0-1.753-.759,2.331,2.331,0,0,0-1.866.831A4.041,4.041,0,0,0,131.476-5.783ZM140-3.1h.615a7.725,7.725,0,0,0,.062.943,3.386,3.386,0,0,0,.174.682,1.4,1.4,0,0,0,.379.564,2,2,0,0,0,.559.359,2.357,2.357,0,0,0,.615.169,7.977,7.977,0,0,0,.948.041,2.611,2.611,0,0,0,1.718-.554,1.861,1.861,0,0,0,.672-1.518,1.376,1.376,0,0,0-.21-.759,1.4,1.4,0,0,0-.6-.513,10.45,10.45,0,0,0-1.7-.482q-1.3-.3-1.682-.431a2.812,2.812,0,0,1-.913-.523,2.189,2.189,0,0,1-.538-.779,2.6,2.6,0,0,1-.2-1.025,2.764,2.764,0,0,1,.426-1.492,3.022,3.022,0,0,1,1.338-1.107,4.648,4.648,0,0,1,1.989-.426,7.371,7.371,0,0,1,1.5.179,5.831,5.831,0,0,1,1.384.446q-.072,1.138-.1,2.317h-.584a6.034,6.034,0,0,0-.118-.984,1.676,1.676,0,0,0-.179-.42,1.548,1.548,0,0,0-.39-.395,2.822,2.822,0,0,0-.713-.374,3.058,3.058,0,0,0-1.072-.164,1.993,1.993,0,0,0-1.451.533,1.69,1.69,0,0,0-.549,1.251,1.4,1.4,0,0,0,.159.687,1.33,1.33,0,0,0,.426.467,2.789,2.789,0,0,0,.749.323l1.7.42a10.729,10.729,0,0,1,1.779.564,1.838,1.838,0,0,1,.784.733,2.286,2.286,0,0,1,.3,1.195,3.158,3.158,0,0,1-1.143,2.415A4.4,4.4,0,0,1,143.063.277,13.826,13.826,0,0,1,140.714.01a3.717,3.717,0,0,1-.872-.215.12.12,0,0,1-.041-.1.912.912,0,0,1,.021-.174,6.531,6.531,0,0,0,.123-.861Q139.976-1.764,140-3.1Z" transform="translate(556 433)" fill="#303030"/>
  </g>
</svg>
